<svg viewBox="0 0 16 16" xmlns="http://www.w3.org/2000/svg" xmlns:xlink="http://www.w3.org/1999/xlink" width="16.000000" height="16.000000" fill="none">
	<rect id="fi_9131795" width="16.000000" height="16.000000" x="0.000000" y="0.000000" fill="rgb(255,255,255)" fill-opacity="0" />
	<g id="Group">
		<path id="Vector" d="M2.96715 10.56C3.32061 10.56 3.60715 10.8465 3.60715 11.2L3.60715 12.48C3.60715 12.6497 3.67457 12.8125 3.79461 12.9325C3.91462 13.0525 4.0774 13.12 4.24715 13.12L11.9271 13.12C12.0969 13.12 12.2596 13.0526 12.3797 12.9325C12.4997 12.8125 12.5671 12.6497 12.5671 12.48L12.5671 11.2C12.5671 10.8465 12.8537 10.56 13.2071 10.56C13.5606 10.56 13.8471 10.8465 13.8471 11.2L13.8471 12.48C13.8471 12.9892 13.6449 13.4776 13.2848 13.8376C12.9247 14.1977 12.4363 14.4 11.9271 14.4L4.24715 14.4C3.73795 14.4 3.24957 14.1978 2.88949 13.8376C2.52944 13.4776 2.32715 12.9892 2.32715 12.48L2.32715 11.2C2.32715 10.8465 2.61368 10.56 2.96715 10.56Z" fill="rgb(0,211,144)" fill-rule="evenodd" />
		<path id="Vector" d="M4.43501 6.90742C4.68495 6.65749 5.09017 6.65749 5.34011 6.90742L8.08755 9.65488L10.835 6.90742C11.0849 6.65749 11.4902 6.65749 11.7401 6.90742C11.9901 7.15735 11.9901 7.56259 11.7401 7.81251L8.54009 11.0125C8.29017 11.2624 7.88492 11.2624 7.635 11.0125L4.43501 7.81251C4.18508 7.56259 4.18508 7.15735 4.43501 6.90742Z" fill="rgb(0,211,144)" fill-rule="evenodd" />
		<path id="Vector" d="M8.08727 2.23999C8.44074 2.23999 8.72727 2.52653 8.72727 2.87999L8.72727 10.56C8.72727 10.9135 8.44074 11.2 8.08727 11.2C7.73379 11.2 7.44727 10.9135 7.44727 10.56L7.44727 2.87999C7.44727 2.52653 7.73379 2.23999 8.08727 2.23999Z" fill="rgb(0,211,144)" fill-rule="evenodd" />
	</g>
</svg>
